<svg width="68" height="68" viewBox="0 0 68 68" fill="none" xmlns="http://www.w3.org/2000/svg">
<path d="M23.8629 56.8973C23.8629 59.436 23.8918 61.8641 23.9074 63.3712C23.9151 64.1178 24.3959 64.7791 25.1049 65.0134C30.9923 66.9573 37.3347 67.0477 43.2751 65.2718L44.1047 65.0236C44.9042 64.7847 45.4531 64.0509 45.459 63.2165C45.4737 61.1394 45.506 57.5031 45.506 53.2168C45.506 49.3289 44.1534 46.8407 42.5843 45.5447C52.2154 44.508 62.3335 40.983 62.3335 25.0688C62.3335 20.5071 60.6562 16.8266 57.8968 13.9237C58.3294 12.887 59.8444 8.63628 57.4638 2.93414C57.4638 2.93414 53.8386 1.7937 45.5602 7.18482C42.0973 6.25175 38.4179 5.78521 34.7385 5.78521C31.0592 5.78521 27.3799 6.25175 23.917 7.18482C15.6385 1.84554 12.0133 2.93414 12.0133 2.93414C9.63259 8.63628 11.1476 12.887 11.5805 13.9237C8.82098 16.8266 7.14362 20.559 7.14362 25.0688C7.14362 40.9312 17.2077 44.508 26.8388 45.5447C25.5944 46.5814 24.4581 48.3959 24.0794 51.0912C21.5904 52.1801 15.368 53.9424 11.4722 47.67C10.6606 46.4259 8.22578 43.3676 4.817 43.4194C1.19178 43.4713 3.3561 45.3892 4.87111 46.1669C6.71077 47.1518 8.82098 50.8323 9.30794 52.0245C10.1737 54.3572 12.9873 58.8152 23.8629 56.8973Z" fill="black"/>
</svg>
